<svg width="24" height="24" viewBox="0 0 24 24" fill="none" xmlns="http://www.w3.org/2000/svg">
<g clip-path="url(#clip0_95_111)">
<mask id="mask0_95_111" style="mask-type:luminance" maskUnits="userSpaceOnUse" x="0" y="0" width="24" height="24">
<path d="M24 0H0V24H24V0Z" fill="white"/>
</mask>
<g mask="url(#mask0_95_111)">
<path d="M12.0001 24C13.0369 24 13.9321 23.3845 14.3411 22.5H9.65918C10.0681 23.3845 10.9634 24 12.0001 24Z" fill="#F0EEFF"/>
<path d="M11.2968 17.8124V12.1261C9.69408 11.843 8.48435 10.612 8.48435 9.14057C8.48435 8.75226 8.79916 8.43745 9.18747 8.43745C9.57578 8.43745 9.89058 8.75226 9.89058 9.14057C9.89058 9.85349 10.4784 10.4614 11.2968 10.6871V0.48056C10.8142 0.171468 10.2478 0 9.65622 0C8.17755 0 6.91624 1.06767 6.65932 2.50864C4.96606 3.00383 3.79688 4.55252 3.79688 6.32809C3.79688 7.27749 4.13297 8.1848 4.74768 8.9062C4.13301 9.6276 3.79688 10.5349 3.79688 11.4843C3.79688 13.2599 4.96606 14.8086 6.65932 15.3038C6.91619 16.7447 8.17755 17.8124 9.65622 17.8124H11.2968Z" fill="#F0EEFF"/>
<path d="M8.48438 19.9219C8.48438 20.5691 9.00905 21.0938 9.65625 21.0938H14.3438C14.991 21.0938 15.5156 20.5691 15.5156 19.9219V19.2188H8.48438V19.9219Z" fill="#F0EEFF"/>
<path d="M17.3406 2.50864C17.0838 1.06771 15.8225 0 14.3437 0C13.7522 0 13.1857 0.171468 12.7031 0.48056V5.68633C14.3059 5.9694 15.5156 7.20047 15.5156 8.67187C15.5156 9.06018 15.2008 9.37499 14.8125 9.37499C14.4242 9.37499 14.1094 9.06018 14.1094 8.67187C14.1094 7.95895 13.5215 7.35108 12.7031 7.12533V17.8124H14.3437C15.8224 17.8124 17.0838 16.7448 17.3406 15.3038C19.0339 14.8086 20.2031 13.2599 20.2031 11.4844C20.2031 10.535 19.867 9.62765 19.2523 8.90624C19.867 8.18484 20.2031 7.27753 20.2031 6.32813C20.2031 4.55252 19.0339 3.00387 17.3406 2.50864Z" fill="#F0EEFF"/>
<path d="M21.8913 3.98459C21.6641 3.98459 21.4411 3.87463 21.3056 3.67138C21.0902 3.34827 21.1776 2.91172 21.5007 2.69633L22.9069 1.75883C23.23 1.54334 23.6666 1.63072 23.882 1.95383C24.0974 2.27694 24.01 2.71349 23.6869 2.92888L22.2807 3.86638C22.1609 3.9463 22.0253 3.98459 21.8913 3.98459Z" fill="#F0EEFF"/>
<path d="M23.2963 15.7033C23.1623 15.7033 23.0268 15.665 22.9069 15.5851L21.5007 14.6476C21.1776 14.4322 21.0902 13.9957 21.3056 13.6726C21.5211 13.3494 21.9577 13.2622 22.2807 13.4776L23.6869 14.4151C24.01 14.6304 24.0974 15.067 23.882 15.3901C23.7465 15.5933 23.5235 15.7033 23.2963 15.7033Z" fill="#F0EEFF"/>
<path d="M2.10884 3.98454C1.97482 3.98454 1.8393 3.94629 1.71945 3.86637L0.313195 2.92887C-0.00991404 2.71348 -0.0972421 2.27693 0.118148 1.95382C0.333586 1.63066 0.77018 1.54338 1.0932 1.75882L2.49945 2.69632C2.82255 2.91171 2.90988 3.34826 2.69449 3.67137C2.55902 3.87457 2.33604 3.98454 2.10884 3.98454Z" fill="#F0EEFF"/>
<path d="M0.703852 15.7033C0.476648 15.7033 0.253664 15.5934 0.118148 15.3901C-0.0972421 15.067 -0.00991404 14.6305 0.313195 14.4151L1.71945 13.4776C2.04251 13.2621 2.4791 13.3495 2.69449 13.6726C2.90988 13.9957 2.82255 14.4322 2.49945 14.6476L1.0932 15.5851C0.973383 15.665 0.837867 15.7033 0.703852 15.7033Z" fill="#F0EEFF"/>
<path d="M2.10938 9.375H0.703125C0.314813 9.375 0 9.06019 0 8.67188C0 8.28356 0.314813 7.96875 0.703125 7.96875H2.10938C2.49769 7.96875 2.8125 8.28356 2.8125 8.67188C2.8125 9.06019 2.49769 9.375 2.10938 9.375Z" fill="#F0EEFF"/>
<path d="M23.2969 9.375H21.8906C21.5023 9.375 21.1875 9.06019 21.1875 8.67188C21.1875 8.28356 21.5023 7.96875 21.8906 7.96875H23.2969C23.6852 7.96875 24 8.28356 24 8.67188C24 9.06019 23.6852 9.375 23.2969 9.375Z" fill="#F0EEFF"/>
</g>
</g>
<defs>
<clipPath id="clip0_95_111">
<rect width="24" height="24" fill="white"/>
</clipPath>
</defs>
</svg>
