<svg width="24" height="24" viewBox="0 0 24 24" fill="none" xmlns="http://www.w3.org/2000/svg">
<g clip-path="url(#clip0_95_104)">
<mask id="mask0_95_104" style="mask-type:luminance" maskUnits="userSpaceOnUse" x="0" y="0" width="24" height="24">
<path d="M24 0H0V24H24V0Z" fill="white"/>
</mask>
<g mask="url(#mask0_95_104)">
<path d="M16.5208 13.3591L10.6408 7.47913C10.4291 7.26769 10.1661 7.11494 9.87763 7.0359C9.58909 6.95685 9.28496 6.95422 8.9951 7.02827L3.62425 8.43398C3.25367 8.5287 2.92578 8.74545 2.69346 9.04931C2.46114 9.35316 2.33792 9.72639 2.34367 10.1088C2.37696 14.3314 1.6073 18.5217 0.0756774 22.4568C-0.00054092 22.661 -0.0164495 22.8828 0.0298473 23.0958C0.0761442 23.3087 0.182694 23.5039 0.3368 23.658C0.490907 23.8121 0.686071 23.9187 0.899036 23.965C1.112 24.0113 1.33378 23.9953 1.53796 23.9191C5.4734 22.3893 9.66376 21.6213 13.8859 21.6563C14.2684 21.662 14.6416 21.5388 14.9455 21.3065C15.2493 21.0742 15.4661 20.7463 15.5608 20.3757L16.9716 15.0048C17.0457 14.715 17.0431 14.4109 16.964 14.1223C16.885 13.8338 16.7322 13.5708 16.5208 13.3591ZM11.1945 16.8734C10.7922 17.2757 10.2796 17.5497 9.72168 17.6607C9.16368 17.7717 8.58529 17.7147 8.05966 17.497C7.53403 17.2793 7.08476 16.9106 6.76867 16.4376C6.45258 15.9645 6.28387 15.4084 6.28387 14.8394C6.28387 14.2705 6.45258 13.7143 6.76867 13.2413C7.08476 12.7682 7.53403 12.3995 8.05966 12.1818C8.58529 11.9641 9.16368 11.9071 9.72168 12.0181C10.2796 12.1291 10.7922 12.4031 11.1945 12.8054C11.7331 13.3453 12.0356 14.0768 12.0356 14.8394C12.0356 15.602 11.7331 16.3335 11.1945 16.8734Z" fill="#F0EEFF"/>
<path d="M23.4975 7.36946L16.6291 0.50105C15.9597 -0.168319 14.8745 -0.168319 14.2051 0.50105L11.7617 2.94444C11.0924 3.61381 11.0924 4.69907 11.7617 5.36844L18.6301 12.2369C19.2995 12.9062 20.3848 12.9062 21.0541 12.2369L23.4975 9.79346C24.1669 9.12409 24.1669 8.03883 23.4975 7.36946Z" fill="#F0EEFF"/>
</g>
</g>
<defs>
<clipPath id="clip0_95_104">
<rect width="24" height="24" fill="white"/>
</clipPath>
</defs>
</svg>
