<svg width="24" height="24" viewBox="0 0 24 24" fill="none" xmlns="http://www.w3.org/2000/svg">
<g clip-path="url(#clip0_95_128)">
<mask id="mask0_95_128" style="mask-type:luminance" maskUnits="userSpaceOnUse" x="0" y="0" width="24" height="24">
<path d="M24 0H0V24H24V0Z" fill="white"/>
</mask>
<g mask="url(#mask0_95_128)">
<path d="M12 3.457C11.586 3.457 11.25 3.121 11.25 2.707V0.75C11.25 0.336 11.586 0 12 0C12.414 0 12.75 0.336 12.75 0.75V2.707C12.75 3.121 12.414 3.457 12 3.457Z" fill="#F0EEFF"/>
<path d="M18.571 6.1787C18.379 6.1787 18.187 6.1057 18.041 5.9587C17.748 5.6657 17.748 5.1907 18.041 4.8977L19.425 3.5137C19.718 3.2207 20.193 3.2207 20.486 3.5137C20.779 3.8067 20.779 4.2817 20.486 4.5747L19.102 5.9587C18.955 6.1047 18.763 6.1787 18.571 6.1787Z" fill="#F0EEFF"/>
<path d="M23.25 12.75H21.293C20.879 12.75 20.543 12.414 20.543 12C20.543 11.586 20.879 11.25 21.293 11.25H23.25C23.664 11.25 24 11.586 24 12C24 12.414 23.664 12.75 23.25 12.75Z" fill="#F0EEFF"/>
<path d="M19.955 20.7051C19.763 20.7051 19.571 20.6321 19.425 20.4851L18.041 19.1011C17.748 18.8081 17.748 18.3331 18.041 18.0401C18.334 17.7471 18.809 17.7471 19.102 18.0401L20.486 19.4241C20.779 19.7171 20.779 20.1921 20.486 20.4851C20.339 20.6321 20.147 20.7051 19.955 20.7051Z" fill="#F0EEFF"/>
<path d="M4.04516 20.7051C3.85316 20.7051 3.66116 20.6321 3.51516 20.4851C3.22216 20.1921 3.22216 19.7171 3.51516 19.4241L4.89916 18.0401C5.19216 17.7471 5.66716 17.7471 5.96016 18.0401C6.25316 18.3331 6.25316 18.8081 5.96016 19.1011L4.57616 20.4851C4.42916 20.6321 4.23716 20.7051 4.04516 20.7051Z" fill="#F0EEFF"/>
<path d="M2.707 12.75H0.75C0.336 12.75 0 12.414 0 12C0 11.586 0.336 11.25 0.75 11.25H2.707C3.121 11.25 3.457 11.586 3.457 12C3.457 12.414 3.121 12.75 2.707 12.75Z" fill="#F0EEFF"/>
<path d="M5.42916 6.1787C5.23716 6.1787 5.04516 6.1057 4.89916 5.9587L3.51516 4.5747C3.22216 4.2817 3.22216 3.8067 3.51516 3.5137C3.80816 3.2207 4.28316 3.2207 4.57616 3.5137L5.96016 4.8977C6.25316 5.1907 6.25316 5.6657 5.96016 5.9587C5.81216 6.1047 5.62116 6.1787 5.42916 6.1787Z" fill="#F0EEFF"/>
<path d="M15 21V22.25C15 23.21 14.21 24 13.25 24H10.75C9.91 24 9 23.36 9 21.96V21H15Z" fill="#F0EEFF"/>
<path d="M16.4098 6.55961C14.7698 5.22961 12.6098 4.70961 10.4998 5.15961C7.84982 5.70961 5.69982 7.86961 5.14982 10.5196C4.58982 13.2396 5.60982 15.9396 7.78982 17.5896C8.37982 18.0296 8.78982 18.7096 8.92982 19.4996V19.5096C8.94982 19.4996 8.97982 19.4996 8.99982 19.4996H14.9998C15.0198 19.4996 15.0298 19.4996 15.0498 19.5096V19.4996C15.1898 18.7396 15.6398 18.0396 16.3298 17.4996C18.0198 16.1596 18.9998 14.1596 18.9998 11.9996C18.9998 9.87961 18.0598 7.89961 16.4098 6.55961ZM15.7498 12.4996C15.3398 12.4996 14.9998 12.1596 14.9998 11.7496C14.9998 10.2296 13.7698 8.99961 12.2498 8.99961C11.8398 8.99961 11.4998 8.65961 11.4998 8.24961C11.4998 7.83961 11.8398 7.49961 12.2498 7.49961C14.5898 7.49961 16.4998 9.40961 16.4998 11.7496C16.4998 12.1596 16.1598 12.4996 15.7498 12.4996Z" fill="#F0EEFF"/>
<path d="M8.93018 19.5H9.00018C8.98018 19.5 8.95018 19.5 8.93018 19.51V19.5Z" fill="#F0EEFF"/>
<path d="M15.05 19.5V19.51C15.03 19.5 15.02 19.5 15 19.5H15.05Z" fill="#F0EEFF"/>
</g>
</g>
<defs>
<clipPath id="clip0_95_128">
<rect width="24" height="24" fill="white"/>
</clipPath>
</defs>
</svg>
