<svg width="161" height="148" viewBox="0 0 161 148" fill="none" xmlns="http://www.w3.org/2000/svg">
<rect x="6.4165" width="148" height="148" fill="#161A27"/>
<rect x="16.9833" y="13.6502" width="123.783" height="123.783" stroke="#E0EDFA" stroke-width="2.63368"/>
<mask id="path-3-inside-1_124_100" fill="white">
<path d="M73.3741 94.4335L61.4993 94.4335L49.0499 58.9048L48.188 58.9048L35.6428 94.4335L23.6722 94.4335L41.8675 47.0299L55.3704 47.0299L73.3741 94.4335Z"/>
</mask>
<path d="M73.3741 94.4335L61.4993 94.4335L49.0499 58.9048L48.188 58.9048L35.6428 94.4335L23.6722 94.4335L41.8675 47.0299L55.3704 47.0299L73.3741 94.4335Z" fill="#5B4EB2"/>
<path d="M73.3741 94.4335L73.3741 95.9298L75.543 95.9298L74.773 93.9022L73.3741 94.4335ZM61.4993 94.4335L60.0872 94.9283L60.4381 95.9298L61.4993 95.9298L61.4993 94.4335ZM49.0499 58.9048L50.462 58.4099L50.1111 57.4084L49.0499 57.4084L49.0499 58.9048ZM48.188 58.9048L48.188 57.4084L47.1295 57.4084L46.7771 58.4065L48.188 58.9048ZM35.6428 94.4335L35.6428 95.9298L36.7013 95.9298L37.0538 94.9317L35.6428 94.4335ZM23.6722 94.4335L22.2753 93.8973L21.4951 95.9298L23.6722 95.9298L23.6722 94.4335ZM41.8675 47.0299L41.8675 45.5336L40.8391 45.5336L40.4706 46.4937L41.8675 47.0299ZM55.3704 47.0299L56.7692 46.4987L56.4027 45.5336L55.3704 45.5336L55.3704 47.0299ZM73.3741 94.4335L73.3741 92.9371L61.4993 92.9371L61.4993 94.4335L61.4993 95.9298L73.3741 95.9298L73.3741 94.4335ZM61.4993 94.4335L62.9114 93.9386L50.462 58.4099L49.0499 58.9048L47.6377 59.3996L60.0872 94.9283L61.4993 94.4335ZM49.0499 58.9048L49.0499 57.4084L48.188 57.4084L48.188 58.9048L48.188 60.4011L49.0499 60.4011L49.0499 58.9048ZM48.188 58.9048L46.7771 58.4065L34.2319 93.9353L35.6428 94.4335L37.0538 94.9317L49.599 59.403L48.188 58.9048ZM35.6428 94.4335L35.6428 92.9371L23.6722 92.9371L23.6722 94.4335L23.6722 95.9298L35.6428 95.9298L35.6428 94.4335ZM23.6722 94.4335L25.0692 94.9697L43.2645 47.5661L41.8675 47.0299L40.4706 46.4937L22.2753 93.8973L23.6722 94.4335ZM41.8675 47.0299L41.8675 48.5263L55.3704 48.5263L55.3704 47.0299L55.3704 45.5336L41.8675 45.5336L41.8675 47.0299ZM55.3704 47.0299L53.9715 47.5612L71.9753 94.9647L73.3741 94.4335L74.773 93.9022L56.7692 46.4987L55.3704 47.0299Z" fill="#E0EDFA" mask="url(#path-3-inside-1_124_100)"/>
<mask id="path-5-inside-2_124_100" fill="white">
<path d="M131.958 94.4335L120.083 94.4335L107.633 58.9048L106.771 58.9048L94.2263 94.4335L82.2557 94.4335L100.451 47.0299L113.954 47.0299L131.958 94.4335Z"/>
</mask>
<path d="M131.958 94.4335L120.083 94.4335L107.633 58.9048L106.771 58.9048L94.2263 94.4335L82.2557 94.4335L100.451 47.0299L113.954 47.0299L131.958 94.4335Z" fill="#5B4EB2"/>
<path d="M131.958 94.4335L131.958 95.9298L134.127 95.9298L133.356 93.9022L131.958 94.4335ZM120.083 94.4335L118.671 94.9283L119.022 95.9298L120.083 95.9298L120.083 94.4335ZM107.633 58.9048L109.046 58.4099L108.695 57.4084L107.633 57.4084L107.633 58.9048ZM106.771 58.9048L106.771 57.4084L105.713 57.4084L105.361 58.4065L106.771 58.9048ZM94.2263 94.4335L94.2263 95.9298L95.2848 95.9298L95.6373 94.9317L94.2263 94.4335ZM82.2557 94.4335L80.8588 93.8973L80.0786 95.9298L82.2557 95.9298L82.2557 94.4335ZM100.451 47.0299L100.451 45.5336L99.4226 45.5336L99.0541 46.4937L100.451 47.0299ZM113.954 47.0299L115.353 46.4987L114.986 45.5336L113.954 45.5336L113.954 47.0299ZM131.958 94.4335L131.958 92.9371L120.083 92.9371L120.083 94.4335L120.083 95.9298L131.958 95.9298L131.958 94.4335ZM120.083 94.4335L121.495 93.9386L109.046 58.4099L107.633 58.9048L106.221 59.3996L118.671 94.9283L120.083 94.4335ZM107.633 58.9048L107.633 57.4084L106.771 57.4084L106.771 58.9048L106.771 60.4011L107.633 60.4011L107.633 58.9048ZM106.771 58.9048L105.361 58.4065L92.8154 93.9353L94.2263 94.4335L95.6373 94.9317L108.182 59.403L106.771 58.9048ZM94.2263 94.4335L94.2263 92.9371L82.2557 92.9371L82.2557 94.4335L82.2557 95.9298L94.2263 95.9298L94.2263 94.4335ZM82.2557 94.4335L83.6527 94.9697L101.848 47.5661L100.451 47.0299L99.0541 46.4937L80.8588 93.8973L82.2557 94.4335ZM100.451 47.0299L100.451 48.5263L113.954 48.5263L113.954 47.0299L113.954 45.5336L100.451 45.5336L100.451 47.0299ZM113.954 47.0299L112.555 47.5612L130.559 94.9647L131.958 94.4335L133.356 93.9022L115.353 46.4987L113.954 47.0299Z" fill="#E0EDFA" mask="url(#path-5-inside-2_124_100)"/>
</svg>
